<svg aria-hidden="true" style="position:absolute;width:0;height:0" xmlns="http://www.w3.org/2000/svg" overflow="hidden"><defs><symbol id="menu-dots" viewBox="0 0 20 20"><path d="M10.001 7.8a2.2 2.2 0 100 4.402A2.2 2.2 0 0010 7.8zm0-2.6A2.2 2.2 0 109.999.8a2.2 2.2 0 00.002 4.4zm0 9.6a2.2 2.2 0 100 4.402 2.2 2.2 0 000-4.402z"/></symbol><symbol id="icon-close" viewBox="0 0 20 20"><path d="M10 8.586L2.929 1.515 1.515 2.929 8.586 10l-7.071 7.071 1.414 1.414L10 11.414l7.071 7.071 1.414-1.414L11.414 10l7.071-7.071-1.414-1.414L10 8.586z"/></symbol><symbol id="icon-arrow-right" viewBox="0 0 24 24"><path d="M8.578 16.594 13.172 12 8.578 7.406 9.984 6l6 6-6 6z"/></symbol><symbol id="icon-arrow-left" viewBox="0 0 24 24"><path d="M15.422 16.594 14.016 18l-6-6 6-6 1.406 1.406L10.828 12z"/></symbol><symbol id="icon-home" viewBox="0 0 20 20"><path d="M18.672 11H17v6c0 .445-.194 1-1 1h-4v-6H8v6H4c-.806 0-1-.555-1-1v-6H1.328c-.598 0-.47-.324-.06-.748L9.292 2.22c.195-.202.451-.302.708-.312.257.01.513.109.708.312l8.023 8.031c.411.425.539.749-.059.749z"/></symbol><symbol id="icon-edit" viewBox="0 0 24 24"><path d="m16.293 2.293-13.5 13.5a.995.995 0 0 0-.258.444l-1.5 5.5a1 1 0 0 0 1.228 1.228l5.5-1.5a.99.99 0 0 0 .444-.258l13.5-13.5c.747-.747 1.121-1.729 1.121-2.707s-.374-1.96-1.121-2.707S19.978 1.172 19 1.172s-1.96.374-2.707 1.121zm1.414 1.414c.357-.357.824-.535 1.293-.535s.936.178 1.293.536.535.823.535 1.292-.178.936-.535 1.293L6.981 19.605l-3.556.97.97-3.555z"/></symbol><symbol id="icon-info" viewBox="0 0 24 24"><path d="M11.016 9V6.984h1.969V9h-1.969zM12 20.016q3.281 0 5.648-2.367t2.367-5.648-2.367-5.648T12 3.986 6.352 6.353t-2.367 5.648 2.367 5.648T12 20.016zm0-18q4.125 0 7.055 2.93t2.93 7.055-2.93 7.055T12 21.986t-7.055-2.93-2.93-7.055 2.93-7.055T12 2.016zm-.984 15v-6h1.969v6h-1.969z"/></symbol><symbol id="menu-burger" viewBox="0 0 20 20"><path d="M0 3h20v2H0V3zm0 6h20v2H0V9zm0 6h20v2H0v-2z"/></symbol><symbol id="icon-search" viewBox="0 0 20 20"><path d="M12.9 14.32a7.947 7.947 0 0 1-4.908 1.682 8 8 0 1 1 6.305-3.075l.013-.018 5.35 5.33-1.42 1.42-5.33-5.34zM8 14A6 6 0 1 0 8 2a6 6 0 1 0 0 12z"/></symbol><symbol id="icon-loader" viewBox="0 0 32 32"><path stroke-linejoin="round" stroke-linecap="round" d="M31.319 16C31.319 7.539 24.46.681 16 .681S.681 7.54.681 16C.681 24.461 7.54 31.319 16 31.319"/></symbol><symbol id="icon-eye" viewBox="0 0 32 32"><path d="M16 6C9.021 6 2.972 10.064 0 16c2.972 5.936 9.021 10 16 10s13.027-4.064 16-10c-2.972-5.936-9.021-10-16-10zm7.889 5.303A15.212 15.212 0 0 1 28.559 16a15.223 15.223 0 0 1-4.67 4.697C21.527 22.204 18.799 23 16 23s-5.527-.796-7.889-2.303A15.212 15.212 0 0 1 3.441 16a15.223 15.223 0 0 1 5.041-4.925 8 8 0 1 0 15.036 0c.124.074.248.15.371.228zM16 13a3 3 0 1 1-6 0 3 3 0 0 1 6 0z"/></symbol><symbol id="icon-eye-blocked" viewBox="0 0 32 32"><path d="M29.561.439a1.5 1.5 0 0 0-2.121 0l-6.318 6.318A17.626 17.626 0 0 0 16 6C9.021 6 2.972 10.064 0 16a18.323 18.323 0 0 0 5.407 6.472L.439 27.44a1.5 1.5 0 1 0 2.122 2.121l27-27a1.5 1.5 0 0 0 0-2.121zM13 10a3 3 0 0 1 2.841 2.037l-3.804 3.804A3 3 0 0 1 13 10zm-9.559 6a15.223 15.223 0 0 1 5.041-4.925A7.985 7.985 0 0 0 8 13.812c0 1.715.54 3.304 1.459 4.607l-1.904 1.904A15.219 15.219 0 0 1 3.441 16zM24 13.813c0-.849-.133-1.667-.378-2.434L13.566 21.435a8 8 0 0 0 10.435-7.622z"/><path d="M25.938 9.062 23.77 11.23l.118.074a15.212 15.212 0 0 1 4.67 4.697 15.223 15.223 0 0 1-4.67 4.697 14.642 14.642 0 0 1-11.45 1.864l-2.403 2.403a17.587 17.587 0 0 0 5.964 1.036c6.978 0 13.027-4.064 16-10a18.292 18.292 0 0 0-6.062-6.938z"/></symbol><symbol id="github" viewBox="0 0 32 32"><path d="M16 .395c-8.836 0-16 7.163-16 16 0 7.069 4.585 13.067 10.942 15.182.8.148 1.094-.347 1.094-.77 0-.381-.015-1.642-.022-2.979-4.452.968-5.391-1.888-5.391-1.888-.728-1.849-1.776-2.341-1.776-2.341-1.452-.993.11-.973.11-.973 1.606.113 2.452 1.649 2.452 1.649 1.427 2.446 3.743 1.739 4.656 1.33.143-1.034.558-1.74 1.016-2.14-3.554-.404-7.29-1.777-7.29-7.907 0-1.747.625-3.174 1.649-4.295-.166-.403-.714-2.03.155-4.234 0 0 1.344-.43 4.401 1.64a15.353 15.353 0 0 1 4.005-.539c1.359.006 2.729.184 4.008.539 3.054-2.07 4.395-1.64 4.395-1.64.871 2.204.323 3.831.157 4.234 1.026 1.12 1.647 2.548 1.647 4.295 0 6.145-3.743 7.498-7.306 7.895.574.497 1.085 1.47 1.085 2.963 0 2.141-.019 3.864-.019 4.391 0 .426.288.925 1.099.768C27.421 29.457 32 23.462 32 16.395c0-8.837-7.164-16-16-16z"/></symbol><symbol id="icon-react-logo" viewBox="0 0 45 32"><path d="M35.817 15.938c0-1.747-2.188-3.403-5.542-4.429.774-3.419.43-6.139-1.086-7.01-.349-.204-.758-.301-1.204-.301v1.199c.247 0 .446.048.613.14.731.419 1.048 2.016.801 4.069a16.6 16.6 0 0 1-.274 1.58 26.071 26.071 0 0 0-3.413-.586 26.287 26.287 0 0 0-2.236-2.688c1.752-1.629 3.397-2.521 4.515-2.521V4.192c-1.478 0-3.413 1.054-5.37 2.881-1.957-1.817-3.892-2.86-5.37-2.86v1.199c1.113 0 2.763.887 4.515 2.505a25.365 25.365 0 0 0-2.22 2.682 25.173 25.173 0 0 0-3.419.591 16.286 16.286 0 0 1-.28-1.559c-.253-2.053.059-3.65.785-4.075.161-.097.371-.14.618-.14V4.217a2.4 2.4 0 0 0-1.215.301c-1.511.871-1.849 3.585-1.07 6.993-3.344 1.032-5.521 2.682-5.521 4.424 0 1.747 2.188 3.403 5.542 4.429-.774 3.419-.43 6.139 1.086 7.01.349.204.758.301 1.209.301 1.478 0 3.413-1.054 5.37-2.881 1.957 1.817 3.892 2.86 5.37 2.86a2.4 2.4 0 0 0 1.215-.301c1.511-.871 1.849-3.585 1.07-6.993 3.333-1.027 5.51-2.682 5.51-4.424zm-6.999-3.585a24.144 24.144 0 0 1-.726 2.123c-.22-.43-.452-.86-.704-1.29-.247-.43-.511-.849-.774-1.258.763.113 1.5.253 2.204.425zm-2.462 5.725a28.363 28.363 0 0 1-1.295 2.053 27.931 27.931 0 0 1-4.849.006 29.506 29.506 0 0 1-1.301-2.043 27.972 27.972 0 0 1-1.118-2.139c.333-.72.71-1.441 1.113-2.145.419-.726.849-1.414 1.295-2.053a27.932 27.932 0 0 1 4.849-.005c.446.64.882 1.322 1.301 2.043.409.704.779 1.419 1.118 2.139-.339.72-.71 1.441-1.113 2.145zm1.736-.699c.29.72.538 1.441.742 2.139-.704.172-1.446.317-2.215.43.263-.414.527-.839.774-1.274.247-.43.478-.865.699-1.295zm-5.451 5.735c-.5-.516-1-1.091-1.494-1.72.484.021.978.038 1.478.038.505 0 1.005-.011 1.494-.038a21.105 21.105 0 0 1-1.478 1.72zm-3.999-3.166a24.31 24.31 0 0 1-2.204-.425c.199-.693.446-1.408.726-2.123.22.43.452.86.704 1.29s.511.849.774 1.258zm3.972-11.186c.5.516 1 1.091 1.494 1.72a34.044 34.044 0 0 0-1.478-.038c-.505 0-1.005.011-1.494.038.484-.629.984-1.204 1.478-1.72zm-3.977 3.166a30.141 30.141 0 0 0-1.473 2.564c-.29-.72-.538-1.441-.742-2.139a25.978 25.978 0 0 1 2.215-.425zm-4.865 6.73c-1.903-.812-3.134-1.876-3.134-2.72s1.231-1.914 3.134-2.72c.462-.199.968-.376 1.489-.543.306 1.054.71 2.15 1.209 3.274a25.334 25.334 0 0 0-1.193 3.258 16.456 16.456 0 0 1-1.505-.548zm2.892 7.682c-.731-.419-1.048-2.016-.801-4.069a16.6 16.6 0 0 1 .274-1.58c1.054.258 2.204.457 3.413.586a26.287 26.287 0 0 0 2.236 2.688c-1.752 1.629-3.397 2.521-4.515 2.521a1.28 1.28 0 0 1-.607-.145zm12.75-4.096c.253 2.053-.059 3.65-.785 4.075-.161.097-.371.14-.618.14-1.113 0-2.763-.887-4.515-2.505a25.365 25.365 0 0 0 2.22-2.682 25.173 25.173 0 0 0 3.419-.591c.124.543.22 1.064.28 1.564zm2.07-3.586c-.462.199-.968.376-1.489.543a25.903 25.903 0 0 0-1.209-3.274 25.334 25.334 0 0 0 1.193-3.258c.532.167 1.037.349 1.511.548 1.903.812 3.134 1.876 3.134 2.72-.005.844-1.236 1.914-3.139 2.72z"/><path d="M25.082 15.938a2.457 2.457 0 1 1-4.914 0 2.457 2.457 0 0 1 4.914 0z"/></symbol><symbol id="icon-arrow-top" fill="none" viewBox="0 0 65 37"><path d="M1.76196 35.544L33.6438 2.01416L63.515 35.544" stroke="#fff" stroke-width="5"/></symbol></defs></svg>