<svg aria-hidden="true" style="position:absolute;width:0;height:0;overflow:hidden" xmlns="http://www.w3.org/2000/svg"><defs><symbol id="check-square" viewBox="0 0 24 24"><path d="m8.293 11.707 3 3a.999.999 0 0 0 1.414 0l10-10a.999.999 0 1 0-1.414-1.414L12 12.586l-2.293-2.293a.999.999 0 1 0-1.414 1.414zM20 12v7c0 .276-.111.525-.293.707S19.276 20 19 20H5c-.276 0-.525-.111-.707-.293S4 19.276 4 19V5c0-.276.111-.525.293-.707S4.724 4 5 4h11a1 1 0 0 0 0-2H5a2.997 2.997 0 0 0-3 3v14a2.997 2.997 0 0 0 3 3h14a2.997 2.997 0 0 0 3-3v-7a1 1 0 0 0-2 0z"/></symbol><symbol id="check1" viewBox="0 0 24 24"><path d="M19.293 5.293 9 15.586l-4.293-4.293a.999.999 0 1 0-1.414 1.414l5 5a.999.999 0 0 0 1.414 0l11-11a.999.999 0 1 0-1.414-1.414z"/></symbol><symbol id="content_copy" viewBox="0 0 24 24"><path d="M18.984 21V6.984H8.015V21h10.969zm0-15.984q.797 0 1.406.586t.609 1.383v14.016q0 .797-.609 1.406t-1.406.609H8.015q-.797 0-1.406-.609T6 21.001V6.985q0-.797.609-1.383t1.406-.586h10.969zm-3-4.032V3h-12v14.016H2.015V3q0-.797.586-1.406T3.984.985h12z"/></symbol></defs></svg>